<svg width="54" height="44" viewBox="0 0 54 44" fill="none" xmlns="http://www.w3.org/2000/svg">
<path d="M31.9147 29.2331C35.1718 27.8366 37.7431 25.9357 39.6273 23.5298C41.5112 21.1243 42.4533 18.5047 42.4533 15.671C42.4533 12.8371 41.5112 10.2173 39.6265 7.81174C37.7426 5.40618 35.1717 3.5051 31.9142 2.10829C28.6566 0.711701 25.1135 0.0136719 21.2844 0.0136719C17.4556 0.0136719 13.9125 0.712129 10.6548 2.10829C7.39734 3.50499 4.82637 5.40607 2.9423 7.81174C1.05802 10.2177 0.115723 12.8371 0.115723 15.6711C0.115723 18.0969 0.828424 20.3812 2.25161 22.5218C3.6747 24.6619 5.62933 26.4665 8.11489 27.9341C7.91457 28.4238 7.70909 28.8717 7.49855 29.28C7.28791 29.6877 7.03757 30.0798 6.74667 30.4572C6.45599 30.8348 6.23071 31.1302 6.0702 31.3436C5.9098 31.5576 5.64924 31.859 5.2882 32.2456C4.92727 32.6331 4.69662 32.8879 4.59656 33.0099C4.59656 32.9894 4.55644 33.0356 4.47618 33.1477C4.39582 33.2599 4.35075 33.3105 4.34085 33.301C4.33074 33.29 4.29061 33.3409 4.22047 33.4531C4.15032 33.5653 4.11515 33.6213 4.11515 33.6213L4.03984 33.7738C4.01014 33.8353 3.98971 33.8955 3.97981 33.9571C3.9697 34.0179 3.96464 34.0846 3.96464 34.1557C3.96464 34.2268 3.97454 34.2928 3.99498 34.3543C4.0351 34.619 4.15032 34.8326 4.34074 34.9965C4.53106 35.1593 4.73632 35.2406 4.95708 35.2406H5.04733C6.04945 35.0979 6.9116 34.9349 7.63315 34.7512C10.7203 33.9361 13.507 32.6308 15.9926 30.8369C17.7966 31.1632 19.5608 31.3262 21.2846 31.3262C25.1138 31.3276 28.6572 30.6298 31.9147 29.2331Z" fill="#EE851F"/>
<path d="M51.8648 30.3652C53.2885 28.2349 53.9998 25.9472 53.9998 23.5006C53.9998 20.9927 53.2472 18.6468 51.7443 16.4656C50.2407 14.2847 48.1957 12.4699 45.61 11.0225C46.0706 12.5513 46.3012 14.1007 46.3012 15.6708C46.3012 18.4024 45.6305 20.9915 44.2865 23.4382C42.9435 25.8842 41.019 28.045 38.5133 29.9209C36.1879 31.6333 33.5417 32.9479 30.5746 33.8656C27.6084 34.7827 24.5111 35.2417 21.2835 35.2417C20.6824 35.2417 19.8002 35.2014 18.6377 35.12C22.6668 37.8104 27.3979 39.1564 32.8302 39.1564C34.5543 39.1564 36.3182 38.9929 38.1226 38.6668C40.6081 40.4614 43.3949 41.7655 46.4818 42.5815C47.2035 42.7655 48.0655 42.9282 49.0678 43.0708C49.3083 43.0912 49.5292 43.0198 49.7295 42.8566C49.93 42.6936 50.0605 42.47 50.1203 42.1849C50.1109 42.0624 50.1203 41.9953 50.1505 41.9855C50.1801 41.9759 50.1751 41.9093 50.1353 41.7872C50.0957 41.6646 50.0755 41.6035 50.0755 41.6035L50.0005 41.4509C49.9797 41.4107 49.9458 41.3542 49.8953 41.2831C49.8452 41.2124 49.8053 41.1607 49.7749 41.1303C49.7455 41.0998 49.7007 41.0485 49.6401 40.9777C49.5803 40.907 49.54 40.8608 49.5198 40.8403C49.4196 40.7179 49.1892 40.4632 48.8284 40.0757C48.4673 39.6887 48.2072 39.388 48.0468 39.174C47.8863 38.9599 47.6608 38.6645 47.3702 38.287C47.0797 37.9101 46.8288 37.5176 46.6183 37.1097C46.4079 36.7021 46.2024 36.2534 46.002 35.7644C48.4877 34.2953 50.4418 32.4962 51.8648 30.3652Z" fill="#EE851F"/>
</svg>
