<svg width="44" height="44" viewBox="0 0 44 44" fill="none" xmlns="http://www.w3.org/2000/svg">
<g clip-path="url(#clip0)">
<path d="M30.8057 34.2441C30.3421 34.2441 29.9658 34.6204 29.9658 35.084C29.9658 35.5476 30.3421 35.9238 30.8057 35.9238C31.2693 35.9238 31.6455 35.5476 31.6455 35.084C31.6455 34.6204 31.2693 34.2441 30.8057 34.2441Z" fill="#EE851F"/>
<path d="M32.8735 31.5283L28.8818 30.198L27.4487 27.3319C28.7397 26.0179 29.6361 24.2792 29.9384 22.4658L30.1171 21.3945H31.6455C33.0348 21.3945 34.165 20.2643 34.165 18.875V13.584C34.165 6.63764 28.5137 0.986328 21.5674 0.986328C14.6032 0.986328 8.96973 6.62143 8.96973 13.584V18.875C8.96973 19.9698 9.67192 20.9034 10.6494 21.2501V22.2344C10.6494 23.6236 11.7797 24.7539 13.1689 24.7539H13.9065C14.2706 25.5448 14.7418 26.2773 15.3153 26.9353C15.4342 27.072 15.5582 27.2046 15.6853 27.3335L14.253 30.198L10.2612 31.5284C5.61976 33.0761 2.25098 37.9622 2.25098 43.1465C2.25098 43.6103 2.62697 43.9863 3.09082 43.9863H40.0439C40.5077 43.9863 40.8838 43.6103 40.8838 43.1465C40.8838 37.9622 37.5151 33.0761 32.8735 31.5283ZM32.4854 18.875C32.4854 19.3381 32.1086 19.7148 31.6455 19.7148H30.3637C30.5772 18.0612 30.7195 16.3015 30.7767 14.5683C30.7784 14.5194 30.7797 14.4719 30.7812 14.4238H32.4854V18.875ZM11.4893 19.7148C11.0262 19.7148 10.6494 19.3381 10.6494 18.875V14.4238H12.3541C12.3569 14.5114 12.3598 14.5994 12.3631 14.688C12.3632 14.6911 12.3634 14.694 12.3635 14.697C12.3635 14.6973 12.3635 14.6975 12.3635 14.6978C12.4222 16.3835 12.5627 18.0976 12.7713 19.7148H11.4893V19.7148ZM13.1689 23.0742C12.7059 23.0742 12.3291 22.6975 12.3291 22.2344V21.3945H13.0176L13.1963 22.4661C13.2304 22.6698 13.2723 22.8727 13.3208 23.0742H13.1689ZM12.3305 12.7441H10.6813C11.1067 7.11542 15.8041 2.66602 21.5674 2.66602C27.305 2.66602 32.0231 7.11484 32.4534 12.7441H30.8043C30.7439 8.10594 26.9668 4.3457 22.3191 4.3457H20.8158C16.1682 4.3457 12.3909 8.10594 12.3305 12.7441ZM20.8157 6.02539H22.319C26.0823 6.02539 29.1282 9.1035 29.126 12.8626C29.126 13.1269 29.1239 13.357 29.1194 13.5663C29.1194 13.569 29.1193 13.5718 29.1193 13.5746L28.0689 13.4245C25.2151 13.017 22.5205 11.6697 20.4815 9.63076C20.324 9.47329 20.1104 9.38477 19.8877 9.38477C17.6322 9.38477 15.4731 10.4124 14.0459 12.1485C14.3976 8.72876 17.2886 6.02539 20.8157 6.02539ZM15.062 23.0742C14.6415 21.6756 14.1605 17.5604 14.0541 14.9233L15.1845 13.4161C16.2226 12.0324 17.8377 11.1726 19.5558 11.0739C21.8164 13.2253 24.7409 14.646 27.8314 15.0872L29.0678 15.2639C28.9851 17.0179 28.8162 18.7781 28.5743 20.3969C28.5742 20.3974 28.5741 20.398 28.574 20.3986C28.4971 20.919 28.4365 21.2539 28.2816 22.1894C27.8368 24.8572 25.8462 27.2697 23.2184 27.9267C22.137 28.1967 20.9976 28.1966 19.9168 27.9267C18.276 27.5165 16.7715 26.3812 15.8005 24.7539H17.5126C17.8593 25.7314 18.7928 26.4336 19.8877 26.4336H21.5674C22.9594 26.4336 24.0869 25.3062 24.0869 23.9141C24.0869 22.5248 22.9567 21.3945 21.5674 21.3945H19.8877C18.7684 21.3945 17.8487 22.1175 17.5112 23.0742H15.062ZM19.8171 29.6263C20.3931 29.7477 20.9804 29.8098 21.5674 29.8098C22.0269 29.8098 22.4864 29.7713 22.9408 29.6967L21.4568 31.2661L19.8171 29.6263ZM20.3022 32.4871L17.6383 35.3041C16.905 33.9004 16.2749 32.4395 15.758 30.9439L16.7584 28.9432L20.3022 32.4871ZM26.2341 28.6587L27.3766 30.9438C26.8589 32.4419 26.2286 33.9033 25.496 35.3054L22.6449 32.4543L26.2341 28.6587ZM19.0479 23.9141C19.0479 23.4504 19.4239 23.0742 19.8877 23.0742H21.5674C22.0305 23.0742 22.4072 23.451 22.4072 23.9141C22.4072 24.3778 22.0311 24.7539 21.5674 24.7539H19.8877C19.4246 24.7539 19.0479 24.3772 19.0479 23.9141ZM3.96426 42.3066C4.29709 38.1461 7.06597 34.3645 10.7924 33.1219L14.3276 31.9437C14.9753 33.7347 15.7777 35.4754 16.718 37.1289C16.7196 37.1318 16.7211 37.1346 16.7227 37.1374C16.7227 37.1375 16.7228 37.1375 16.7228 37.1376C17.4099 38.346 18.1832 39.5269 19.0216 40.648L20.0548 42.3066H3.96426ZM21.5674 41.558L20.4284 39.7294C20.4156 39.7089 20.402 39.689 20.3876 39.6697C19.7075 38.7625 19.073 37.8137 18.4952 36.8426L21.4904 33.6752L24.6463 36.8312C24.0647 37.8094 23.4281 38.7621 22.7474 39.6695C22.7062 39.7244 22.7646 39.638 21.5674 41.558ZM23.0799 42.3066L24.113 40.6481C24.9551 39.5227 25.734 38.3323 26.428 37.1097C26.4322 37.1023 26.4361 37.0947 26.4403 37.0873C26.4408 37.0864 26.4413 37.0856 26.4418 37.0847C27.3703 35.447 28.1643 33.7213 28.8072 31.9437L32.3423 33.1219C36.0688 34.3645 38.8377 38.1461 39.1705 42.3066H23.0799Z" fill="white"/>
<path d="M36.6465 38.9073C36.0852 37.7838 35.2631 36.7858 34.269 36.021C33.9013 35.738 33.374 35.8068 33.0912 36.1745C32.8084 36.5422 32.8772 37.0694 33.2448 37.3523C34.0388 37.9631 34.6954 38.7604 35.1437 39.6579C35.3514 40.0736 35.8562 40.2409 36.2704 40.0339C36.6853 39.8266 36.8537 39.3222 36.6465 38.9073Z" fill="#EE851F"/>
</g>
<defs>
<clipPath id="clip0">
<rect width="43" height="43" fill="white" transform="translate(0.0673828 0.986328)"/>
</clipPath>
</defs>
</svg>
