<svg width="42" height="42" viewBox="0 0 42 42" fill="none" xmlns="http://www.w3.org/2000/svg">
<g clip-path="url(#clip0)">
<path d="M20.5415 0.75C9.21117 0.75 0.0415039 9.9187 0.0415039 21.25C0.0415039 32.5803 9.21021 41.75 20.5415 41.75C31.8718 41.75 41.0415 32.5813 41.0415 21.25C41.0415 9.91975 31.8728 0.75 20.5415 0.75ZM20.5415 39.0167C10.745 39.0167 2.77481 31.0466 2.77481 21.25C2.77481 11.4534 10.745 3.48331 20.5415 3.48331C30.338 3.48331 38.3082 11.4535 38.3082 21.25C38.3082 31.0465 30.338 39.0167 20.5415 39.0167Z" fill="white"/>
<path d="M24.7678 20.8409H20.3003V13.229C20.3003 12.4743 19.6884 11.8623 18.9336 11.8623C18.1788 11.8623 17.5669 12.4742 17.5669 13.229V22.2075C17.5669 22.9623 18.1788 23.5742 18.9336 23.5742H24.7678C25.5225 23.5742 26.1345 22.9623 26.1345 22.2075C26.1345 21.4527 25.5226 20.8409 24.7678 20.8409Z" fill="#EE851F"/>
</g>
<defs>
<clipPath id="clip0">
<rect width="41" height="41" fill="white" transform="translate(0.0415039 0.75)"/>
</clipPath>
</defs>
</svg>
