<svg width="40" height="40" viewBox="0 0 40 40" fill="none" xmlns="http://www.w3.org/2000/svg">
<g clip-path="url(#clip0)">
<path d="M39.2565 39.9862H1.59707C1.23145 39.9862 0.926758 39.6815 0.926758 39.3159C0.926758 38.9502 1.23145 38.6455 1.59707 38.6455H39.2869C39.6526 38.6455 39.9572 38.9502 39.9572 39.3159C39.9268 39.6815 39.6221 39.9862 39.2565 39.9862Z" fill="white"/>
<path d="M23.2299 0.986328H5.00957C4.76582 0.986328 4.58301 1.16914 4.58301 1.38242V36.1473H11.4994V32.2777C11.4994 30.9676 12.5354 29.8098 13.9369 29.7488C15.4299 29.6879 16.6486 30.7848 16.6486 32.1254V36.1473H23.6565V1.38242C23.6565 1.16914 23.4432 0.986328 23.2299 0.986328ZM12.9315 26.5801H7.75176V23.8074H12.9315V26.5801ZM12.9315 20.1816H7.75176V17.409H12.9315V20.1816ZM12.9315 13.8137H7.75176V11.041H12.9315V13.8137ZM12.9315 7.44573H7.75176V4.64258H12.9315V7.44573ZM20.3963 26.5801H15.2166V23.8074H20.3963V26.5801ZM20.3963 20.1816H15.2166V17.409H20.3963V20.1816ZM20.3963 13.8137H15.2166V11.041H20.3963V13.8137ZM20.3963 7.44573H15.2166V4.64258H20.3963V7.44573Z" fill="white"/>
<path d="M29.1716 30.3582V27.9511H35.6614V26.2754H29.1716V23.8379H35.6614V22.1316H29.1716V19.7246H35.6614V16.9519C35.6614 16.7082 35.4786 16.5254 35.2653 16.4949L26.0333 15.0019C25.7591 14.9715 25.4849 15.1847 25.4849 15.459V36.2691H35.6614V30.3582H29.1716Z" fill="#EE851F"/>
</g>
<defs>
<clipPath id="clip0">
<rect width="39" height="39" fill="white" transform="translate(0.926758 0.986328)"/>
</clipPath>
</defs>
</svg>
