<svg width="45" height="46" viewBox="0 0 45 46" fill="none" xmlns="http://www.w3.org/2000/svg">
<path d="M44.9186 37.1815C44.7075 36.1653 44.1101 35.297 43.2364 34.7364C42.3626 34.1761 41.3247 33.9951 40.3126 34.2265L35.6221 35.3005V33.383C36.5629 32.4969 37.5424 31.3399 38.239 30.2824C39.4605 28.4282 40.325 26.3919 40.8084 24.2314C41.3831 21.6609 41.3955 18.9398 40.8437 16.3611C40.7421 15.8866 40.2749 15.5838 39.8004 15.6857C39.3256 15.787 39.0234 16.2543 39.1247 16.7291C39.6239 19.0613 39.6129 21.5229 39.0928 23.8475C38.6561 25.7997 37.8747 27.6395 36.7709 29.3153C36.4437 29.8121 36.0468 30.3333 35.6221 30.8311V21.089C35.6221 20.6035 35.2287 20.21 34.7432 20.21H27.7906V10.8243C27.7906 10.3402 27.3989 9.9471 26.9148 9.94538L19.0833 9.91895C19.0822 9.91895 19.0815 9.91895 19.0805 9.91895C18.8477 9.91895 18.6246 10.011 18.4601 10.1754C18.2946 10.3402 18.2016 10.564 18.2016 10.7979V15.6802H11.2479C10.7628 15.6802 10.369 16.0737 10.369 16.5592V25.2627H8.41072V24.069C8.41072 23.5839 8.01727 23.1904 7.53182 23.1904H6.63025C6.47678 22.3455 6.38786 21.4872 6.36692 20.6303C6.31542 18.5466 6.6457 16.508 7.34814 14.5703C7.5119 14.1185 7.69798 13.668 7.90089 13.232C8.10585 12.7919 7.91496 12.269 7.47517 12.064C7.03503 11.8597 6.51215 12.0499 6.30753 12.4901C6.08265 12.9728 5.87666 13.4713 5.69573 13.9712C4.91844 16.1152 4.55315 18.3705 4.60945 20.6735C4.63039 21.5154 4.71073 22.3579 4.84703 23.1904H0.878906C0.393448 23.1904 0 23.5839 0 24.0693V39.5182C0 40.0036 0.393448 40.3971 0.878906 40.3971H7.53182C8.01727 40.3971 8.41072 40.0036 8.41072 39.5182V38.6825H11.7169L25.1096 43.9354C26.36 44.426 27.6698 44.6728 28.9864 44.6728C29.8643 44.6728 30.7459 44.563 31.6142 44.3422L42.1113 41.6742C44.1039 41.1678 45.3368 39.1944 44.9186 37.1815ZM33.8647 21.9679V35.7028L31.515 36.2408C31.2623 36.2985 31.0069 36.3442 30.7501 36.3799C29.7709 36.5148 28.7718 36.4863 27.803 36.2944C27.7988 36.2933 27.7947 36.2927 27.7906 36.2916V34.9588C28.4608 33.9591 28.6829 32.6915 28.3317 31.5345C28.2338 31.2118 28.0948 30.9004 27.918 30.6131C27.8778 30.5478 27.8359 30.484 27.7923 30.4215C27.792 30.4205 27.7913 30.4198 27.7906 30.4187V21.9675H33.8647V21.9679ZM19.9594 11.6798L26.0331 11.7001V29.0228L22.6387 27.6179L19.9594 26.5086V11.6798ZM12.1268 17.4381H18.2006V25.7805L17.1105 25.3293C17.0037 25.285 16.8894 25.2624 16.7744 25.2624H12.1268V17.4381ZM6.65291 38.6393H1.75781V24.9479H5.90447C5.90618 24.9479 5.90824 24.9482 5.9103 24.9482C5.91202 24.9482 5.91339 24.9479 5.91511 24.9479H6.65291V38.6393ZM41.6784 39.9707L31.1813 42.6386C29.3692 43.099 27.4916 42.9813 25.7513 42.2991L12.2041 36.9855C12.1018 36.9453 11.993 36.9251 11.8831 36.9251H8.41072V27.0205H16.5993L22.2861 29.3744L25.398 30.6625C26.499 31.1191 27.026 32.4107 26.5746 33.5104C26.4839 33.7311 26.3717 33.9409 26.2227 34.128C25.6723 34.8225 24.7663 35.1288 23.919 34.9228C23.9121 34.9211 23.9052 34.9194 23.8984 34.9176C23.8475 34.9049 23.7971 34.8902 23.747 34.8737L17.8332 32.6002C17.7852 32.5817 17.7597 32.5721 17.7597 32.5721C17.3069 32.3977 16.7984 32.6239 16.624 33.0771C16.45 33.5299 16.6759 34.0387 17.1291 34.2128C17.1291 34.2128 20.4634 35.4948 23.0061 36.4753C23.0572 36.4952 23.108 36.5138 23.1592 36.5309L25.1117 37.2818C25.7018 37.5087 26.2893 37.7346 26.9035 37.8915C27.9465 38.1579 29.029 38.265 30.1043 38.2063C30.7106 38.1734 31.3158 38.0896 31.9077 37.9543L34.9396 37.2605C34.9427 37.2598 34.9458 37.2584 34.9489 37.2577L40.705 35.9401C41.2526 35.8148 41.8147 35.9126 42.2871 36.2158C42.7602 36.5192 43.0832 36.9893 43.1976 37.5393C43.4242 38.6286 42.7567 39.6967 41.6784 39.9707Z" fill="white"/>
<path d="M11.2393 8.1438C11.4494 8.1438 11.6602 8.06895 11.8281 7.9172C13.3964 6.50065 15.2693 5.37078 17.2451 4.64946C19.3857 3.86806 21.7323 3.53469 24.0315 3.68575C25.6771 3.7939 27.2893 4.14512 28.8233 4.72945C29.2765 4.90214 29.7846 4.67486 29.9573 4.22099C30.1303 3.76746 29.9027 3.25969 29.4488 3.087C27.7514 2.44018 25.9675 2.05153 24.1469 1.93171C21.6056 1.76486 19.0104 2.13359 16.6422 2.99842C14.4563 3.7963 12.3843 5.04634 10.6502 6.61258C10.2897 6.93805 10.2615 7.49389 10.587 7.85403C10.7604 8.04629 10.9993 8.1438 11.2393 8.1438Z" fill="white"/>
<path d="M31.1912 14.4167C31.3578 14.5612 31.5631 14.632 31.7673 14.632C32.0128 14.632 32.2573 14.5296 32.4313 14.3298L39.6624 6.00597C39.981 5.63964 39.9419 5.08449 39.5755 4.76623C39.2089 4.44797 38.654 4.48677 38.3358 4.85309L31.1044 13.177C30.7858 13.5433 30.8249 14.0984 31.1912 14.4167Z" fill="#EE851F"/>
<path d="M37.6714 10.6582C36.4546 10.6582 35.4648 11.648 35.4648 12.8647C35.4648 14.0815 36.4546 15.0713 37.6714 15.0713C38.8881 15.0713 39.8779 14.0811 39.8779 12.8647C39.8779 11.648 38.8881 10.6582 37.6714 10.6582ZM37.6714 13.3135C37.4238 13.3135 37.2227 13.1123 37.2227 12.8647C37.2227 12.6175 37.4238 12.416 37.6714 12.416C37.9186 12.416 38.1201 12.6175 38.1201 12.8647C38.1201 13.1123 37.9186 13.3135 37.6714 13.3135Z" fill="#EE851F"/>
<path d="M32.7908 8.70213C34.0075 8.70213 34.9973 7.71233 34.9973 6.4956C34.9973 5.27886 34.0075 4.28906 32.7908 4.28906C31.574 4.28906 30.5842 5.27886 30.5842 6.4956C30.5842 7.71233 31.574 8.70213 32.7908 8.70213ZM32.7908 6.04653C33.0383 6.04653 33.2395 6.24806 33.2395 6.4956C33.2395 6.74279 33.0383 6.94432 32.7908 6.94432C32.5432 6.94432 32.342 6.74279 32.342 6.4956C32.342 6.24806 32.5432 6.04653 32.7908 6.04653Z" fill="#EE851F"/>
<path d="M8.11474 10.2089C8.2555 10.5467 8.60191 10.7699 8.96893 10.7507C9.33182 10.7318 9.64974 10.4863 9.762 10.1416C9.8753 9.79383 9.7517 9.39763 9.46091 9.1755C9.16462 8.9496 8.74851 8.93552 8.43815 9.14186C8.0938 9.37085 7.95578 9.82747 8.11474 10.2089Z" fill="#EE851F"/>
</svg>
