<svg width="39" height="31" viewBox="0 0 39 31" fill="none" xmlns="http://www.w3.org/2000/svg">
<path d="M22.659 21.1738C24.9546 20.189 26.7668 18.8485 28.0948 17.1518C29.4226 15.4554 30.0866 13.6081 30.0866 11.6096C30.0866 9.61114 29.4226 7.76364 28.0943 6.0672C26.7664 4.37077 24.9545 3.0301 22.6586 2.04506C20.3627 1.06016 17.8655 0.567902 15.1667 0.567902C12.4682 0.567902 9.97106 1.06046 7.67499 2.04506C5.37915 3.03003 3.56713 4.37069 2.23924 6.0672C0.911201 7.76394 0.24707 9.61114 0.24707 11.6097C0.24707 13.3204 0.749381 14.9313 1.75244 16.4409C2.75543 17.9502 4.13306 19.2228 5.88487 20.2577C5.74369 20.6031 5.59887 20.919 5.45048 21.2069C5.30202 21.4944 5.12558 21.7709 4.92056 22.0371C4.71568 22.3034 4.55691 22.5117 4.44378 22.6622C4.33073 22.8131 4.14709 23.0256 3.89263 23.2983C3.63824 23.5715 3.47568 23.7512 3.40516 23.8373C3.40516 23.8228 3.37688 23.8554 3.32032 23.9345C3.26368 24.0136 3.23191 24.0493 3.22493 24.0426C3.21781 24.0348 3.18953 24.0707 3.14009 24.1498C3.09065 24.229 3.06586 24.2685 3.06586 24.2685L3.01279 24.376C2.99185 24.4194 2.97745 24.4619 2.97048 24.5053C2.96335 24.5481 2.95979 24.5952 2.95979 24.6453C2.95979 24.6955 2.96676 24.742 2.98116 24.7854C3.00945 24.972 3.09065 25.1227 3.22486 25.2383C3.35899 25.3531 3.50367 25.4104 3.65925 25.4104H3.72287C4.42916 25.3098 5.0368 25.1948 5.54535 25.0653C7.72116 24.4905 9.6852 23.5699 11.4371 22.3049C12.7086 22.535 13.9519 22.6499 15.1669 22.6499C17.8657 22.6509 20.3631 22.1588 22.659 21.1738Z" fill="white"/>
<path d="M36.7204 21.9713C37.7239 20.469 38.2252 18.8558 38.2252 17.1303C38.2252 15.3617 37.6948 13.7074 36.6355 12.1692C35.5757 10.6312 34.1344 9.35137 32.312 8.3306C32.6367 9.40878 32.7992 10.5014 32.7992 11.6087C32.7992 13.535 32.3265 15.3609 31.3793 17.0864C30.4327 18.8113 29.0763 20.3351 27.3103 21.658C25.6713 22.8657 23.8063 23.7927 21.7151 24.4399C19.6246 25.0866 17.4415 25.4104 15.1668 25.4104C14.7431 25.4104 14.1213 25.3819 13.302 25.3245C16.1417 27.2218 19.4762 28.171 23.3048 28.171C24.52 28.171 25.7632 28.0557 27.0349 27.8257C28.7867 29.0913 30.7508 30.011 32.9265 30.5864C33.4351 30.7162 34.0427 30.831 34.7491 30.9315C34.9186 30.9459 35.0743 30.8955 35.2155 30.7805C35.3568 30.6655 35.4487 30.5078 35.4909 30.3067C35.4843 30.2204 35.4909 30.173 35.5122 30.1662C35.5331 30.1594 35.5295 30.1124 35.5015 30.0263C35.4736 29.9399 35.4594 29.8967 35.4594 29.8967L35.4065 29.7892C35.3918 29.7608 35.3679 29.721 35.3323 29.6708C35.297 29.621 35.2689 29.5845 35.2475 29.563C35.2267 29.5416 35.1952 29.5054 35.1525 29.4555C35.1103 29.4056 35.0819 29.373 35.0676 29.3586C34.9971 29.2722 34.8346 29.0926 34.5804 28.8193C34.3259 28.5464 34.1425 28.3344 34.0295 28.1835C33.9164 28.0325 33.7574 27.8241 33.5526 27.5579C33.3479 27.2922 33.1711 27.0153 33.0227 26.7277C32.8744 26.4402 32.7296 26.1238 32.5883 25.779C34.3403 24.7429 35.7175 23.4742 36.7204 21.9713Z" fill="white"/>
</svg>
