<svg width="55" height="44" viewBox="0 0 55 44" fill="none" xmlns="http://www.w3.org/2000/svg">
<path d="M32.0412 29.7897C35.2983 28.3932 37.8696 26.4924 39.7537 24.0864C41.6377 21.6809 42.5798 19.0614 42.5798 16.2276C42.5798 13.3937 41.6377 10.7739 39.753 8.36838C37.869 5.96282 35.2982 4.06174 32.0406 2.66493C28.7831 1.26834 25.24 0.570312 21.4109 0.570312C17.5821 0.570312 14.039 1.26877 10.7812 2.66493C7.52381 4.06163 4.95284 5.96271 3.06877 8.36838C1.18449 10.7744 0.242188 13.3937 0.242188 16.2277C0.242188 18.6535 0.954888 20.9378 2.37808 23.0784C3.80116 25.2185 5.7558 27.0231 8.24135 28.4907C8.04103 28.9804 7.83555 29.4283 7.62502 29.8366C7.41438 30.2443 7.16403 30.6364 6.87314 31.0139C6.58246 31.3914 6.35718 31.6868 6.19667 31.9002C6.03626 32.1142 5.7757 32.4156 5.41467 32.8023C5.05373 33.1897 4.82308 33.4445 4.72303 33.5665C4.72303 33.546 4.6829 33.5922 4.60265 33.7043C4.52229 33.8165 4.47721 33.8672 4.46731 33.8576C4.4572 33.8466 4.41707 33.8976 4.34693 34.0097C4.27679 34.122 4.24161 34.178 4.24161 34.178L4.16631 34.3304C4.13661 34.392 4.11618 34.4522 4.10628 34.5138C4.09616 34.5745 4.09111 34.6412 4.09111 34.7124C4.09111 34.7835 4.10101 34.8495 4.12144 34.9109C4.16157 35.1756 4.27679 35.3893 4.46721 35.5532C4.65752 35.716 4.86279 35.7973 5.08354 35.7973H5.1738C6.17592 35.6546 7.03807 35.4916 7.75962 35.3079C10.8468 34.4928 13.6334 33.1874 16.1191 31.3936C17.9231 31.7198 19.6872 31.8829 21.4111 31.8829C25.2402 31.8843 28.7837 31.1864 32.0412 29.7897Z" fill="#EE851F"/>
<path d="M51.9927 30.9218C53.4164 28.7915 54.1278 26.5039 54.1278 24.0572C54.1278 21.5493 53.3752 19.2034 51.8722 17.0223C50.3686 14.8413 48.3236 13.0266 45.7379 11.5791C46.1986 13.108 46.4291 14.6573 46.4291 16.2274C46.4291 18.959 45.7584 21.5482 44.4144 23.9949C43.0714 26.4408 41.1469 28.6016 38.6412 30.4775C36.3158 32.19 33.6696 33.5045 30.7026 34.4222C27.7363 35.3393 24.639 35.7984 21.4115 35.7984C20.8103 35.7984 19.9281 35.758 18.7656 35.6766C22.7947 38.3671 27.5258 39.713 32.9581 39.713C34.6823 39.713 36.4462 39.5495 38.2505 39.2234C40.7361 41.018 43.5228 42.3222 46.6097 43.1381C47.3314 43.3221 48.1934 43.4848 49.1958 43.6274C49.4362 43.6479 49.6572 43.5764 49.8575 43.4133C50.0579 43.2503 50.1884 43.0266 50.2482 42.7415C50.2388 42.6191 50.2482 42.5519 50.2784 42.5422C50.308 42.5325 50.303 42.4659 50.2633 42.3438C50.2237 42.2213 50.2035 42.1601 50.2035 42.1601L50.1285 42.0076C50.1076 41.9673 50.0737 41.9109 50.0233 41.8398C49.9731 41.7691 49.9332 41.7173 49.9029 41.6869C49.8734 41.6565 49.8286 41.6052 49.7681 41.5344C49.7082 41.4637 49.6679 41.4174 49.6477 41.397C49.5475 41.2745 49.3171 41.0198 48.9564 40.6323C48.5952 40.2453 48.3351 39.9447 48.1747 39.7307C48.0143 39.5166 47.7887 39.2212 47.4981 38.8436C47.2076 38.4668 46.9568 38.0742 46.7462 37.6664C46.5358 37.2587 46.3303 36.81 46.1299 36.3211C48.6157 34.852 50.5698 33.0528 51.9927 30.9218Z" fill="#EE851F"/>
</svg>
