<svg width="19" height="19" viewBox="0 0 19 19" fill="none" xmlns="http://www.w3.org/2000/svg">
<path d="M18.2814 8.31543C18.281 8.31502 18.2806 8.3146 18.2802 8.31418L10.852 0.886277C10.5353 0.569516 10.1144 0.39502 9.66662 0.39502C9.21885 0.39502 8.79789 0.569377 8.48113 0.886138L1.05683 8.31029C1.05433 8.31279 1.05183 8.31543 1.04933 8.31793C0.399137 8.97188 0.400248 10.0329 1.05253 10.6852C1.35053 10.9833 1.74412 11.156 2.16494 11.1741C2.18203 11.1757 2.19926 11.1766 2.21662 11.1766H2.51268V16.6431C2.51268 17.7248 3.39281 18.6049 4.47479 18.6049H7.38094C7.67547 18.6049 7.91443 18.3661 7.91443 18.0714V13.7857C7.91443 13.2921 8.31594 12.8905 8.80956 12.8905H10.5237C11.0173 12.8905 11.4188 13.2921 11.4188 13.7857V18.0714C11.4188 18.3661 11.6576 18.6049 11.9523 18.6049H14.8584C15.9404 18.6049 16.8206 17.7248 16.8206 16.6431V11.1766H17.0951C17.5427 11.1766 17.9637 11.0022 18.2806 10.6854C18.9335 10.0321 18.9338 8.96924 18.2814 8.31543V8.31543Z" fill="#EE851F"/>
</svg>
