<svg width="256" height="73" viewBox="0 0 256 73" fill="none" xmlns="http://www.w3.org/2000/svg">
<line x1="116.098" y1="21.8594" x2="116.098" y2="50.2502" stroke="#EE851F" stroke-width="2"/>
<path d="M166.308 22.1879L158.228 50.0679H154.148L147.668 27.6279L140.948 50.0679L136.908 50.1079L129.108 22.1879H132.988L139.068 45.8279L145.788 22.1879H149.868L156.268 45.7479L162.388 22.1879H166.308ZM179.851 50.4279C177.798 50.4279 175.931 49.9612 174.251 49.0279C172.598 48.0945 171.291 46.7745 170.331 45.0679C169.398 43.3345 168.931 41.3345 168.931 39.0679C168.931 36.8279 169.411 34.8545 170.371 33.1479C171.358 31.4145 172.691 30.0945 174.371 29.1879C176.051 28.2545 177.931 27.7879 180.011 27.7879C182.091 27.7879 183.971 28.2545 185.651 29.1879C187.331 30.0945 188.651 31.4012 189.611 33.1079C190.598 34.8145 191.091 36.8012 191.091 39.0679C191.091 41.3345 190.584 43.3345 189.571 45.0679C188.584 46.7745 187.238 48.0945 185.531 49.0279C183.824 49.9612 181.931 50.4279 179.851 50.4279ZM179.851 47.2279C181.158 47.2279 182.384 46.9212 183.531 46.3079C184.678 45.6945 185.598 44.7745 186.291 43.5479C187.011 42.3212 187.371 40.8279 187.371 39.0679C187.371 37.3079 187.024 35.8145 186.331 34.5879C185.638 33.3612 184.731 32.4545 183.611 31.8679C182.491 31.2545 181.278 30.9479 179.971 30.9479C178.638 30.9479 177.411 31.2545 176.291 31.8679C175.198 32.4545 174.318 33.3612 173.651 34.5879C172.984 35.8145 172.651 37.3079 172.651 39.0679C172.651 40.8545 172.971 42.3612 173.611 43.5879C174.278 44.8145 175.158 45.7345 176.251 46.3479C177.344 46.9345 178.544 47.2279 179.851 47.2279ZM199.517 31.7079C200.157 30.4545 201.064 29.4812 202.237 28.7879C203.437 28.0945 204.89 27.7479 206.597 27.7479V31.5079H205.637C201.557 31.5079 199.517 33.7212 199.517 38.1479V50.0679H195.877V28.1479H199.517V31.7079ZM223.039 50.0679L214.439 40.3879V50.0679H210.799V20.4679H214.439V37.8679L222.879 28.1479H227.959L217.639 39.0679L227.999 50.0679H223.039ZM239.145 50.4279C237.465 50.4279 235.958 50.1479 234.625 49.5879C233.291 49.0012 232.238 48.2012 231.465 47.1879C230.691 46.1479 230.265 44.9612 230.185 43.6279H233.945C234.051 44.7212 234.558 45.6145 235.465 46.3079C236.398 47.0012 237.611 47.3479 239.105 47.3479C240.491 47.3479 241.585 47.0412 242.385 46.4279C243.185 45.8145 243.585 45.0412 243.585 44.1079C243.585 43.1479 243.158 42.4412 242.305 41.9879C241.451 41.5079 240.131 41.0412 238.345 40.5879C236.718 40.1612 235.385 39.7345 234.345 39.3079C233.331 38.8545 232.451 38.2012 231.705 37.3479C230.985 36.4679 230.625 35.3212 230.625 33.9079C230.625 32.7879 230.958 31.7612 231.625 30.8279C232.291 29.8945 233.238 29.1612 234.465 28.6279C235.691 28.0679 237.091 27.7879 238.665 27.7879C241.091 27.7879 243.051 28.4012 244.545 29.6279C246.038 30.8545 246.838 32.5345 246.945 34.6679H243.305C243.225 33.5212 242.758 32.6012 241.905 31.9079C241.078 31.2145 239.958 30.8679 238.545 30.8679C237.238 30.8679 236.198 31.1479 235.425 31.7079C234.651 32.2679 234.265 33.0012 234.265 33.9079C234.265 34.6279 234.491 35.2279 234.945 35.7079C235.425 36.1612 236.011 36.5345 236.705 36.8279C237.425 37.0945 238.411 37.4012 239.665 37.7479C241.238 38.1745 242.518 38.6012 243.505 39.0279C244.491 39.4279 245.331 40.0412 246.025 40.8679C246.745 41.6945 247.118 42.7745 247.145 44.1079C247.145 45.3079 246.811 46.3879 246.145 47.3479C245.478 48.3079 244.531 49.0679 243.305 49.6279C242.105 50.1612 240.718 50.4279 239.145 50.4279Z" fill="#20303C"/>
<path d="M21.5727 25.4424C21.685 24.7938 21.5737 24.1262 21.2572 23.5497C20.9408 22.9731 20.4381 22.5222 19.8321 22.2712C19.2261 22.0202 18.5531 21.9841 17.9239 22.169C17.2948 22.3539 16.7472 22.7486 16.3715 23.288L10.8927 31.1475L5.41266 23.288C5.03737 22.748 4.48984 22.3528 3.86057 22.1676C3.2313 21.9823 2.55794 22.0183 1.95176 22.2694C1.34558 22.5206 0.842854 22.9719 0.526661 23.5488C0.210467 24.1257 0.0997263 24.7937 0.212739 25.4424C0.184092 25.6053 0.169117 25.7703 0.167969 25.9357V47.172C0.167969 47.94 0.471744 48.6765 1.01247 49.2195C1.55319 49.7626 2.28657 50.0676 3.05127 50.0676C3.81597 50.0676 4.54935 49.7626 5.09008 49.2195C5.6308 48.6765 5.93458 47.94 5.93458 47.172V34.1342L8.53134 37.8597C8.53902 37.8713 8.54797 37.8815 8.55692 37.8931C8.60809 37.9638 8.66182 38.0331 8.72066 38.0999C8.73857 38.1192 8.7552 38.141 8.77183 38.1616C8.8422 38.2378 8.9165 38.3103 8.99441 38.3787L9.06732 38.4365C9.12233 38.4827 9.17861 38.529 9.23874 38.5714L9.26048 38.5855L9.33723 38.6356C9.40375 38.678 9.47155 38.7178 9.54062 38.7538C9.56109 38.7654 9.58028 38.7782 9.60203 38.7885C9.69201 38.8331 9.78423 38.873 9.87833 38.908L9.92311 38.9259C10.0186 38.9605 10.116 38.9897 10.2148 39.0133H10.2237C10.3258 39.0374 10.4292 39.0559 10.5333 39.0685H10.5832C10.6851 39.0803 10.7876 39.0863 10.8902 39.0865C10.9932 39.0863 11.0961 39.0803 11.1985 39.0685H11.2483C11.3525 39.0557 11.4558 39.0373 11.5579 39.0133H11.5681C11.6663 38.9909 11.7628 38.9621 11.8572 38.9272L11.9033 38.9092C11.9971 38.8745 12.0889 38.8346 12.1783 38.7898C12.2013 38.7795 12.2205 38.7666 12.241 38.7551C12.3101 38.7191 12.3766 38.6793 12.4444 38.6369L12.5211 38.5868L12.5429 38.5727C12.603 38.5303 12.6593 38.484 12.7156 38.4378C12.7399 38.4185 12.7642 38.4005 12.7859 38.38C12.8646 38.3119 12.9393 38.2394 13.0098 38.1629C13.0262 38.1414 13.0437 38.1208 13.0622 38.1012C13.1198 38.0344 13.1748 37.965 13.2247 37.8944C13.234 37.8839 13.2426 37.8727 13.2503 37.861L15.8471 34.1355V47.172C15.8471 47.5523 15.9216 47.9288 16.0665 48.2801C16.2114 48.6314 16.4238 48.9506 16.6916 49.2195C16.9593 49.4884 17.2771 49.7017 17.627 49.8472C17.9768 49.9927 18.3517 50.0676 18.7304 50.0676C19.109 50.0676 19.4839 49.9927 19.8337 49.8472C20.1836 49.7017 20.5014 49.4884 20.7692 49.2195C21.0369 48.9506 21.2493 48.6314 21.3942 48.2801C21.5391 47.9288 21.6137 47.5523 21.6137 47.172V25.9305C21.6141 25.7669 21.6004 25.6036 21.5727 25.4424Z" fill="#20303C"/>
<path d="M43.3511 28.672C42.6842 28.6718 42.0323 28.4729 41.4779 28.1005C40.9235 27.7282 40.4915 27.1991 40.2365 26.5801C39.9816 25.9612 39.9151 25.2802 40.0456 24.6234C40.1761 23.9665 40.4976 23.3632 40.9695 22.8899C41.4413 22.4165 42.0424 22.0943 42.6966 21.9641C43.3509 21.8338 44.0289 21.9013 44.6449 22.158C45.2609 22.4148 45.7873 22.8492 46.1574 23.4064C46.5276 23.9636 46.7249 24.6185 46.7244 25.2883C46.7242 25.7329 46.6368 26.1732 46.4672 26.5839C46.2976 26.9946 46.049 27.3677 45.7358 27.6819C45.4225 27.9962 45.0507 28.2453 44.6415 28.4152C44.2324 28.5851 43.7939 28.6724 43.3511 28.672Z" fill="#EE851F"/>
<path d="M36.3313 30.953L30.8512 23.0949C30.4755 22.5554 29.9279 22.1607 29.2988 21.9758C28.6697 21.791 27.9966 21.827 27.3906 22.078C26.7846 22.329 26.2819 22.78 25.9655 23.3565C25.649 23.933 25.5377 24.6007 25.65 25.2492L31.3731 33.9398L33.4121 36.8636L33.3955 47.0932C33.3923 47.4735 33.4637 47.8506 33.6057 48.2032C33.7476 48.5557 33.9573 48.8767 34.2228 49.1478C34.4883 49.419 34.8044 49.635 35.153 49.7834C35.5016 49.9319 35.8759 50.01 36.2545 50.0132C36.6331 50.0164 37.0087 49.9447 37.3597 49.8021C37.7108 49.6596 38.0304 49.449 38.3004 49.1824C38.5704 48.9158 38.7855 48.5983 38.9333 48.2483C39.0812 47.8982 39.1589 47.5223 39.1621 47.142L39.1787 35.1833" fill="#20303C"/>
<path d="M72.8422 39.4443C72.1916 39.0421 71.4087 38.9155 70.6653 39.0922C69.9219 39.269 69.2786 39.7347 68.8767 40.3872C67.9985 41.8181 66.6794 42.9222 65.1196 43.5318C63.5598 44.1413 61.8445 44.2232 60.2342 43.7648C58.6239 43.3065 57.2065 42.333 56.1972 40.9921C55.1879 39.6513 54.6418 38.0164 54.6418 36.3355C54.6418 34.6546 55.1879 33.0197 56.1972 31.6789C57.2065 30.338 58.6239 29.3645 60.2342 28.9062C61.8445 28.4478 63.5598 28.5297 65.1196 29.1392C66.6794 29.7488 67.9985 30.8529 68.8767 32.2838C69.0734 32.6119 69.333 32.8976 69.6405 33.1243C69.9479 33.3511 70.2971 33.5142 70.6678 33.6045C71.0385 33.6947 71.4233 33.7102 71.8 33.65C72.1767 33.5898 72.5378 33.4551 72.8623 33.2538C73.1868 33.0525 73.4683 32.7886 73.6905 32.4772C73.9127 32.1659 74.0712 31.8134 74.1567 31.4401C74.2423 31.0668 74.2533 30.6802 74.1891 30.3026C74.1248 29.925 73.9866 29.564 73.7824 29.2404C72.2447 26.7367 69.9357 24.8051 67.2057 23.7389C64.4757 22.6727 61.4738 22.53 58.6557 23.3326C55.8377 24.1351 53.3573 25.8391 51.591 28.1858C49.8248 30.5325 48.8691 33.3938 48.8691 36.3355C48.8691 39.2772 49.8248 42.1385 51.591 44.4852C53.3573 46.8319 55.8377 48.5359 58.6557 49.3384C61.4738 50.141 64.4757 49.9983 67.2057 48.9321C69.9357 47.8659 72.2447 45.9343 73.7824 43.4305C73.9814 43.1069 74.115 42.7469 74.1755 42.3714C74.236 41.9958 74.2222 41.612 74.1348 41.2418C74.0475 40.8716 73.8884 40.5223 73.6666 40.2139C73.4448 39.9055 73.1647 39.644 72.8422 39.4443Z" fill="#20303C"/>
<path d="M91.965 49.79C89.3034 49.79 86.7016 48.9974 84.4886 47.5124C82.2756 46.0275 80.5507 43.9168 79.5322 41.4474C78.5136 38.9779 78.2471 36.2606 78.7664 33.6391C79.2856 31.0176 80.5673 28.6095 82.4493 26.7195C84.3313 24.8295 86.7292 23.5424 89.3396 23.0209C91.95 22.4995 94.6558 22.7671 97.1148 23.79C99.5738 24.8128 101.675 26.545 103.154 28.7674C104.633 30.9899 105.422 33.6027 105.422 36.2756C105.418 39.8586 103.999 43.2937 101.476 45.8272C98.9533 48.3608 95.5328 49.7859 91.965 49.79ZM91.965 28.5537C90.4442 28.5537 88.9575 29.0066 87.693 29.8551C86.4286 30.7036 85.443 31.9096 84.861 33.3206C84.279 34.7316 84.1268 36.2842 84.4235 37.7821C84.7201 39.28 85.4525 40.6559 86.5278 41.7359C87.6032 42.8158 88.9733 43.5513 90.4649 43.8492C91.9564 44.1472 93.5025 43.9943 94.9075 43.4098C96.3125 42.8253 97.5134 41.8356 98.3583 40.5657C99.2032 39.2959 99.6542 37.8029 99.6542 36.2756C99.6518 34.2284 98.841 32.2656 97.3995 30.818C95.958 29.3704 94.0035 28.5561 91.965 28.5537Z" fill="#20303C"/>
</svg>
