<svg width="55" height="55" viewBox="0 0 55 55" fill="none" xmlns="http://www.w3.org/2000/svg">
<path fill-rule="evenodd" clip-rule="evenodd" d="M32.8007 4.7405C32.2987 4.66855 31.7945 4.81695 31.3934 5.13623C30.9811 5.46 30.7235 5.92768 30.6674 6.45157C30.5487 7.5106 31.3128 8.46844 32.3704 8.58761C39.6642 9.40155 45.3333 15.0834 46.1535 22.3999C46.2633 23.3802 47.0856 24.1199 48.0671 24.1199C48.141 24.1199 48.2127 24.1154 48.2867 24.1065C48.7998 24.0502 49.2569 23.7962 49.5796 23.3914C49.9 22.9867 50.0457 22.4831 49.9874 21.9682C48.9656 12.8394 41.9005 5.75455 32.8007 4.7405ZM32.9406 12.575C31.8695 12.3771 30.8858 13.0607 30.6819 14.1062C30.478 15.1517 31.1637 16.1725 32.2056 16.3771C35.3427 16.9887 37.765 19.4171 38.379 22.5649V22.5672C38.5538 23.4733 39.3515 24.1321 40.2702 24.1321C40.3934 24.1321 40.5167 24.1208 40.6422 24.0984C41.6841 23.8892 42.3698 22.8707 42.1659 21.8229C41.2494 17.1214 37.6306 13.4901 32.9406 12.575ZM36.5002 34.1764C37.516 33.5907 38.6633 32.9291 40.1105 33.237C41.4214 33.5135 45.8895 37.1403 47.113 38.3972C47.9152 39.2201 48.3611 40.07 48.4305 40.92C48.5515 44.2544 44.0207 48.0611 43.1961 48.5355C42.1003 49.3247 40.8253 49.7227 39.3935 49.7227C37.9302 49.7227 36.299 49.3067 34.5198 48.477C24.8665 44.4478 10.1199 29.9925 6.22099 20.414C4.60314 16.848 4.59194 13.907 6.1941 11.6968C6.83272 10.6602 10.474 6.32747 13.7343 6.46463C14.6015 6.53883 15.444 6.98402 16.2709 7.79347C17.5212 9.01888 21.0572 13.5 21.3306 14.8154C21.6331 16.2769 20.9698 17.4393 20.3805 18.4601C20.2548 18.6796 20.0854 18.94 19.8999 19.2253C19.1957 20.308 18.2584 21.7492 18.5901 22.6692C20.9676 28.5062 26.4597 33.599 32.2992 35.9913C33.2022 36.3196 34.6426 35.3756 35.7219 34.6683C36.003 34.484 36.2597 34.3158 36.476 34.1903L36.5002 34.1764Z" fill="#EE851F"/>
</svg>
