<svg width="19" height="19" viewBox="0 0 19 19" fill="none" xmlns="http://www.w3.org/2000/svg">
<path d="M4.22199 6.05761H3.77311C3.7323 6.05761 3.7187 6.0032 3.7595 5.9896L4.14037 5.74475C4.52124 5.49991 4.73888 4.99662 4.8477 4.65655C4.43963 4.24848 4.20838 3.74519 4.20838 3.22829C4.19478 1.99047 5.45981 0.983887 7.01049 0.983887C8.56118 0.983887 9.82621 1.99047 9.82621 3.2419C9.82621 4.47972 8.56118 5.49991 7.01049 5.49991C6.73844 5.49991 6.46639 5.4727 6.19435 5.40469C5.60944 5.9896 4.63006 6.05761 4.22199 6.05761ZM7.01049 1.32395C5.65025 1.32395 4.53484 2.1809 4.53484 3.2419C4.53484 3.70438 4.75248 4.13966 5.14695 4.49332L5.22857 4.56134L5.18776 4.65655C5.10615 4.9286 4.95652 5.35028 4.68447 5.69034C5.11975 5.63593 5.66385 5.48631 6.00391 5.09183L6.07192 5.01022L6.18074 5.03742C6.45279 5.10544 6.72484 5.14624 7.01049 5.14624C8.37074 5.14624 9.48614 4.28929 9.48614 3.22829C9.48614 2.1809 8.37074 1.32395 7.01049 1.32395Z" fill="#EE851F"/>
<path d="M5.88129 3.94885C6.04656 3.94885 6.18054 3.81487 6.18054 3.6496C6.18054 3.48432 6.04656 3.35034 5.88129 3.35034C5.71601 3.35034 5.58203 3.48432 5.58203 3.6496C5.58203 3.81487 5.71601 3.94885 5.88129 3.94885Z" fill="#EE851F"/>
<path d="M6.99701 3.94885C7.16228 3.94885 7.29626 3.81487 7.29626 3.6496C7.29626 3.48432 7.16228 3.35034 6.99701 3.35034C6.83173 3.35034 6.69775 3.48432 6.69775 3.6496C6.69775 3.81487 6.83173 3.94885 6.99701 3.94885Z" fill="#EE851F"/>
<path d="M8.0982 3.94885C8.26348 3.94885 8.39746 3.81487 8.39746 3.6496C8.39746 3.48432 8.26348 3.35034 8.0982 3.35034C7.93293 3.35034 7.79895 3.48432 7.79895 3.6496C7.79895 3.81487 7.93293 3.94885 8.0982 3.94885Z" fill="#EE851F"/>
<path d="M10.8326 7.18561C10.8326 7.89294 10.2612 8.69549 9.56752 8.69549C8.87379 8.69549 8.30249 7.89294 8.30249 7.18561C8.30249 6.47829 8.87379 5.90698 9.56752 5.90698C10.2748 5.90698 10.8326 6.47829 10.8326 7.18561Z" fill="#EE851F"/>
<path d="M10.3425 8.98083L9.56713 10.3683L8.80539 8.98083C7.96204 8.98083 7.26831 9.78338 7.26831 10.7628V11.3613H11.8795V10.7628C11.8795 9.78338 11.1858 8.98083 10.3425 8.98083Z" fill="#EE851F"/>
<path d="M14.4906 12.8705H4.65725C4.49404 12.8705 4.35803 12.7344 4.35803 12.5712V12.1088C4.35803 12.0544 4.39883 12 4.46684 12H14.7082C14.7627 12 14.8171 12.0408 14.8171 12.1088V12.5712C14.7899 12.7344 14.6538 12.8705 14.4906 12.8705Z" fill="#EE851F"/>
<path d="M12.7646 18.3933H12.3021C12.2477 18.3933 12.1933 18.3525 12.1797 18.3117L12.098 18.094C12.0844 18.0396 12.03 18.0124 11.9756 18.0124H7.17395C7.11954 18.0124 7.06513 18.0532 7.05153 18.094L6.96992 18.3117C6.95631 18.3661 6.9019 18.3933 6.84749 18.3933H6.38501V13.4556H12.7646V18.3933Z" fill="#EE851F"/>
<path d="M15.6058 7.29454C15.6058 7.97466 16.0003 8.66838 16.6804 8.66838C17.3606 8.66838 18.0543 7.97466 18.0543 7.29454C18.0543 6.61441 17.5102 6.07031 16.8301 6.07031C16.1499 6.07031 15.6058 6.61441 15.6058 7.29454Z" fill="#EE851F"/>
<path d="M16.8712 9.00806C16.7351 9.00806 16.5991 9.02166 16.4767 9.06247C16.3271 9.11688 14.3411 10.3003 14.3411 10.3003H13.0625C12.7632 10.3003 12.532 10.5451 12.532 10.8308C12.532 11.13 12.7768 11.3613 13.0625 11.3613H14.6268L15.6469 10.7764L15.5653 13.1568C15.5517 13.3472 15.4021 13.4969 15.2117 13.4969L13.5386 13.5105V15.238H16.3951C17.1568 15.238 17.7961 14.6395 17.8369 13.8777L18.0274 10.2731C18.0682 9.59296 17.5513 9.02166 16.8712 9.00806Z" fill="#EE851F"/>
<path d="M18.0542 16.584H14.0959C13.7831 16.584 13.5382 16.3391 13.5382 16.0263V15.795H18.0542V16.584Z" fill="#EE851F"/>
<path d="M2.2769 6.07056C2.10007 6.07056 1.93684 6.11137 1.78721 6.17938C1.70559 5.94814 1.48795 5.78491 1.24311 5.78491C0.91665 5.78491 0.658203 6.04336 0.658203 6.36982C0.658203 6.64187 0.848638 6.87311 1.10708 6.94112C1.06628 7.04994 1.05267 7.17236 1.05267 7.29479C1.05267 7.97491 1.7464 8.66864 2.42652 8.66864C3.10665 8.66864 3.50112 7.97491 3.50112 7.29479C3.50112 6.61466 2.94342 6.07056 2.2769 6.07056Z" fill="#EE851F"/>
<path d="M6.58904 10.8448C6.58904 10.5456 6.34419 10.3143 6.05854 10.3143H4.77991C4.77991 10.3143 2.79395 9.13091 2.64432 9.0765C2.5219 9.0357 2.38587 9.00849 2.24985 9.02209C1.58333 9.0357 1.05283 9.607 1.09364 10.2735L1.28407 13.8782C1.32488 14.6399 1.9642 15.2384 2.72593 15.2384H5.58245V13.5245L3.88214 13.4973C3.69171 13.4973 3.54208 13.3477 3.52848 13.1572L3.44686 10.7768L4.46705 11.3617H6.03133C6.34419 11.3753 6.58904 11.1441 6.58904 10.8448Z" fill="#EE851F"/>
<path d="M1.03882 16.5839H4.99714C5.30999 16.5839 5.55484 16.339 5.55484 16.0262V15.7949H1.03882V16.5839Z" fill="#EE851F"/>
</svg>
