<svg width="86" height="78" viewBox="0 0 86 78" fill="none" xmlns="http://www.w3.org/2000/svg">
<path d="M84.0413 0H1.87952C0.805508 0 0 0.805508 0 1.87952V53.1635C0 54.1704 0.805508 55.043 1.87952 55.043H38.9329V73.4355H27.1188C26.0448 73.4355 25.1721 74.3081 25.1721 75.3821V78H60.6816V75.3821C60.6816 74.3081 59.809 73.4355 58.7349 73.4355H47.0551V54.9759H84.1084C85.1153 54.9759 85.988 54.1704 85.988 53.0964V1.87952C85.9208 0.805508 85.1153 0 84.0413 0ZM81.8933 47.1222H4.02754V3.62478H81.8933V47.1222Z" fill="#2C3B58"/>
<path d="M58.8021 22.6886H55.513C55.3116 22.0173 55.1102 21.2789 54.8417 20.6077C54.6403 20.1378 54.439 19.735 54.1705 19.3323L56.4527 17.05C56.587 16.9158 56.587 16.7815 56.4527 16.6473L52.2238 12.4855C52.0896 12.3512 51.9553 12.3512 51.8211 12.4855L49.5388 14.7677C49.136 14.4992 48.6662 14.2979 48.2634 14.1636C47.5922 13.8951 46.8538 13.6266 46.1825 13.4924V10.2032C46.1825 10.0689 46.0483 9.93469 45.914 9.93469H39.9398C39.8056 9.93469 39.6713 10.0689 39.6713 10.2032V13.4252C38.4631 13.7609 37.3891 14.1636 36.3822 14.7677L34.0328 12.4183C33.8985 12.2841 33.7643 12.2841 33.63 12.4183L29.4011 16.5801C29.2669 16.7144 29.2669 16.8486 29.4011 16.9829L31.7505 19.3323C31.1464 20.3392 30.6765 21.4803 30.3409 22.6214H27.0517C26.9175 22.6214 26.7832 22.7557 26.7832 22.8899V28.8641C26.7832 28.9984 26.9175 29.1326 27.0517 29.1326H30.3409C30.5422 29.8039 30.7436 30.5423 31.0121 31.2135C31.2135 31.6834 31.4149 32.0862 31.6834 32.4889L29.4011 34.7712C29.2669 34.9054 29.2669 35.0397 29.4011 35.1739L33.63 39.3357C33.7643 39.47 33.8985 39.47 34.0328 39.3357L36.315 37.0535C36.7178 37.322 37.1877 37.5233 37.5904 37.6576C38.2617 37.9261 39.0001 38.1946 39.6713 38.3288V41.618C39.6713 41.7523 39.8056 41.8865 39.9398 41.8865H45.914C46.0483 41.8865 46.1825 41.7523 46.1825 41.618V38.3288C47.3908 37.9932 48.4648 37.5905 49.4717 36.9863L51.8211 39.3357C51.9553 39.47 52.0896 39.47 52.2238 39.3357L56.4527 35.1739C56.587 35.0397 56.587 34.9054 56.4527 34.7712L54.1033 32.4218C54.7075 31.4149 55.1774 30.2738 55.513 29.1326H58.8021C58.9364 29.1326 59.0706 28.9984 59.0706 28.8641V22.9571C59.0706 22.8228 58.9364 22.6886 58.8021 22.6886ZM36.1137 22.5543C36.7849 21.0104 38.0603 19.735 39.6042 19.0638C46.3168 16.1103 52.7608 22.5543 49.8073 29.1998C49.136 30.7436 47.8607 32.019 46.3168 32.6903C39.6042 35.6438 33.1601 29.1998 36.1137 22.5543Z" fill="#EE851F"/>
</svg>
