<svg width="52" height="78" viewBox="0 0 52 78" fill="none" xmlns="http://www.w3.org/2000/svg">
<path d="M25.5938 78.0001C16.7578 78.0001 0 76.4766 0 70.7485C0 64.9594 16.7578 63.4969 25.5938 63.4969C34.4297 63.4969 51.1875 65.0204 51.1875 70.7485C51.1875 76.4766 34.4297 78.0001 25.5938 78.0001ZM25.5938 66.3001C19.2563 66.3001 13.2844 66.9095 8.83594 68.0063C3.9 69.2251 2.80313 70.5048 2.80313 70.7485C2.80313 70.9923 3.9 72.3329 8.83594 73.4907C13.2844 74.5876 19.2563 75.197 25.5938 75.197C31.9313 75.197 37.9031 74.5876 42.3516 73.4907C47.2875 72.272 48.3844 70.9923 48.3844 70.7485C48.3844 70.5048 47.2875 69.1641 42.3516 68.0063C37.9031 66.8485 31.9313 66.3001 25.5938 66.3001Z" fill="#EE851F"/>
<path d="M25.5934 0C12.1871 0 1.2793 11.0906 1.2793 24.7406C1.2793 43.3266 25.5934 70.6875 25.5934 70.6875C25.5934 70.6875 49.9074 43.2656 49.9074 24.7406C49.9074 11.0906 38.9996 0 25.5934 0ZM25.5934 39.4875C17.6106 39.4875 11.1512 32.9063 11.1512 24.7406C11.1512 16.575 17.6106 10.0547 25.5934 10.0547C33.5762 10.0547 40.0356 16.6359 40.0356 24.8016C40.0356 32.9672 33.5762 39.4875 25.5934 39.4875Z" fill="#2C3B58"/>
<path d="M25.5934 12.4922C32.1746 12.4922 37.5371 17.9156 37.5371 24.6187C37.5371 31.3219 32.1746 36.7453 25.5934 36.7453C19.0121 36.7453 13.6496 31.3219 13.6496 24.6187C13.6496 17.9156 19.0121 12.4922 25.5934 12.4922ZM25.5934 9.50623C17.4277 9.50623 10.7246 16.2703 10.7246 24.5578C10.7246 32.8453 17.4277 39.6703 25.5934 39.6703C33.759 39.6703 40.4621 32.9062 40.4621 24.6187C40.4621 16.3312 33.759 9.50623 25.5934 9.50623Z" fill="#EE851F"/>
</svg>
