<svg width="67" height="78" viewBox="0 0 67 78" fill="none" xmlns="http://www.w3.org/2000/svg">
<path d="M3.27682 3.3375H10.8014V0H0V10.8621H3.27682V3.3375Z" fill="#EE851F"/>
<path d="M63.4728 3.3375V10.8621H66.7496V0H55.9482V3.3375H63.4728Z" fill="#EE851F"/>
<path d="M63.4728 74.3352H55.9482V77.6727H66.7496V66.8107H63.4728V74.3352Z" fill="#EE851F"/>
<path d="M3.27682 74.3352V66.8107H0V77.6727H10.8014V74.3352H3.27682Z" fill="#EE851F"/>
<path d="M53.0349 56.1306C52.3674 56.1306 51.8213 55.5845 51.8213 54.8563V49.8197C51.8213 49.0915 52.3674 48.5454 53.0349 48.5454C53.7024 48.5454 54.2486 49.0915 54.2486 49.8197V54.8563C54.2486 55.5845 53.7024 56.1306 53.0349 56.1306Z" fill="#2C3B58"/>
<path d="M54.2497 68.9345H48.1209C47.4534 68.9345 46.9072 68.3883 46.9072 67.6602C46.9072 66.932 47.4534 66.3859 48.1209 66.3859H51.8225V62.5629C51.8225 61.8347 52.3686 61.2886 53.0361 61.2886C53.7036 61.2886 54.2497 61.8347 54.2497 62.5629V68.9345V68.9345Z" fill="#2C3B58"/>
<path d="M38.4716 68.9345H28.7625C28.095 68.9345 27.5488 68.3884 27.5488 67.6602C27.5488 66.932 28.095 66.3859 28.7625 66.3859H38.4109C39.0784 66.3859 39.6245 66.932 39.6245 67.6602C39.6852 68.3884 39.1391 68.9345 38.4716 68.9345Z" fill="#2C3B58"/>
<path d="M19.1142 68.9345H12.9854V62.6236C12.9854 61.8954 13.5315 61.3492 14.199 61.3492C14.8665 61.3492 15.4126 61.8954 15.4126 62.6236V66.4465H19.1142C19.7817 66.4465 20.3279 66.9927 20.3279 67.7208C20.3279 68.3883 19.7817 68.9345 19.1142 68.9345Z" fill="#2C3B58"/>
<path d="M14.199 56.1308C13.5315 56.1308 12.9854 55.5846 12.9854 54.8564V49.8199C12.9854 49.0917 13.5315 48.5455 14.199 48.5455C14.8665 48.5455 15.4126 49.0917 15.4126 49.8199V54.8564C15.4126 55.5846 14.8665 56.1308 14.199 56.1308Z" fill="#2C3B58"/>
<path d="M45.8756 19.5395H54.2497L44.2979 9.46631V17.9618C44.2979 18.8113 45.026 19.5395 45.8756 19.5395Z" fill="#2C3B58"/>
<path d="M41.7496 20.6926V9.7699H12.501V39.7467H54.2501V22.2097H43.3274C42.4171 22.2097 41.7496 21.5422 41.7496 20.6926Z" fill="#2C3B58"/>
<path d="M62.8665 43.084H3.88379V45.6326H62.8665V43.084Z" fill="#EE851F"/>
</svg>
