<svg width="78" height="78" viewBox="0 0 78 78" fill="none" xmlns="http://www.w3.org/2000/svg">
<g clip-path="url(#clip0)">
<path d="M76.6594 78H1.34063C0.609375 78 0 77.3906 0 76.6594C0 75.9281 0.609375 75.3187 1.34063 75.3187H76.7203C77.4516 75.3187 78.0609 75.9281 78.0609 76.6594C78 77.3906 77.3906 78 76.6594 78Z" fill="#EE851F"/>
<path d="M44.6062 0H8.16562C7.67812 0 7.3125 0.365625 7.3125 0.792187V70.3219H21.1453V62.5828C21.1453 59.9625 23.2172 57.6469 26.0203 57.525C29.0063 57.4031 31.4437 59.5969 31.4437 62.2781V70.3219H45.4594V0.792187C45.4594 0.365625 45.0328 0 44.6062 0ZM24.0094 51.1875H13.65V45.6422H24.0094V51.1875ZM24.0094 38.3906H13.65V32.8453H24.0094V38.3906ZM24.0094 25.6547H13.65V20.1094H24.0094V25.6547ZM24.0094 12.9188H13.65V7.3125H24.0094V12.9188ZM38.9391 51.1875H28.5797V45.6422H38.9391V51.1875ZM38.9391 38.3906H28.5797V32.8453H38.9391V38.3906ZM38.9391 25.6547H28.5797V20.1094H38.9391V25.6547ZM38.9391 12.9188H28.5797V7.3125H38.9391V12.9188Z" fill="#2C3B58"/>
<path d="M56.4896 58.7437V53.9296H69.4693V50.5781H56.4896V45.7031H69.4693V42.2906H56.4896V37.4765H69.4693V31.9312C69.4693 31.4437 69.1037 31.0781 68.6771 31.0171L50.2131 28.0312C49.6647 27.9703 49.1162 28.3968 49.1162 28.9453V70.5656H69.4693V58.7437H56.4896Z" fill="#EE851F"/>
</g>
<defs>
<clipPath id="clip0">
<rect width="78" height="78" fill="white"/>
</clipPath>
</defs>
</svg>
