<svg width="78" height="78" viewBox="0 0 78 78" fill="none" xmlns="http://www.w3.org/2000/svg">
<path d="M15.9575 22.7184H13.9476C13.7649 22.7184 13.704 22.4748 13.8867 22.4139L15.5921 21.3175C17.2975 20.2212 18.272 17.9676 18.7593 16.445C16.9321 14.6177 15.8966 12.3642 15.8966 10.0497C15.8357 4.50714 21.5001 0 28.4435 0C35.387 0 41.0513 4.50714 41.0513 10.1106C41.0513 15.6532 35.387 20.2212 28.4435 20.2212C27.2254 20.2212 26.0072 20.0994 24.7891 19.7949C22.1701 22.4139 17.7848 22.7184 15.9575 22.7184ZM28.4435 1.52268C22.3528 1.52268 17.3584 5.35984 17.3584 10.1106C17.3584 12.1815 18.3329 14.1305 20.0992 15.7141L20.4647 16.0186L20.282 16.445C19.9165 17.6631 19.2465 19.5512 18.0284 21.0739C19.9774 20.8303 22.4137 20.1603 23.9364 18.394L24.2409 18.0285L24.7282 18.1504C25.9463 18.4549 27.1645 18.6376 28.4435 18.6376C34.5343 18.6376 39.5287 14.8005 39.5287 10.0497C39.5287 5.35984 34.5343 1.52268 28.4435 1.52268Z" fill="#EE851F"/>
<path d="M23.3888 13.2778C24.1288 13.2778 24.7287 12.6779 24.7287 11.9379C24.7287 11.1978 24.1288 10.5979 23.3888 10.5979C22.6487 10.5979 22.0488 11.1978 22.0488 11.9379C22.0488 12.6779 22.6487 13.2778 23.3888 13.2778Z" fill="#2C3B58"/>
<path d="M28.3829 13.2778C29.123 13.2778 29.7229 12.6779 29.7229 11.9379C29.7229 11.1978 29.123 10.5979 28.3829 10.5979C27.6429 10.5979 27.043 11.1978 27.043 11.9379C27.043 12.6779 27.6429 13.2778 28.3829 13.2778Z" fill="#2C3B58"/>
<path d="M33.3165 13.2778C34.0566 13.2778 34.6565 12.6779 34.6565 11.9379C34.6565 11.1978 34.0566 10.5979 33.3165 10.5979C32.5765 10.5979 31.9766 11.1978 31.9766 11.9379C31.9766 12.6779 32.5765 13.2778 33.3165 13.2778Z" fill="#2C3B58"/>
<path d="M45.5582 27.7736C45.5582 30.9408 43.0001 34.5343 39.8939 34.5343C36.7876 34.5343 34.2295 30.9408 34.2295 27.7736C34.2295 24.6064 36.7876 22.0483 39.8939 22.0483C43.061 22.0483 45.5582 24.6064 45.5582 27.7736Z" fill="#2C3B58"/>
<path d="M43.3656 35.8135L39.8939 42.026L36.4831 35.8135C32.7069 35.8135 29.6006 39.407 29.6006 43.7923V46.4722H50.2481V43.7923C50.2481 39.407 47.1419 35.8135 43.3656 35.8135Z" fill="#2C3B58"/>
<path d="M61.9423 53.233H17.9064C17.1755 53.233 16.5664 52.624 16.5664 51.8931V49.8222C16.5664 49.5786 16.7491 49.335 17.0537 49.335H62.9168C63.1605 49.335 63.4041 49.5177 63.4041 49.8222V51.8931C63.2823 52.624 62.6732 53.233 61.9423 53.233Z" fill="#2C3B58"/>
<path d="M54.2071 77.9614H52.1363C51.8926 77.9614 51.649 77.7787 51.5881 77.5959L51.2226 76.6214C51.1617 76.3778 50.9181 76.256 50.6745 76.256H29.1742C28.9306 76.256 28.687 76.4387 28.6261 76.6214L28.2606 77.5959C28.1997 77.8396 27.9561 77.9614 27.7124 77.9614H25.6416V55.8521H54.2071V77.9614Z" fill="#2C3B58"/>
<path d="M66.9365 28.261C66.9365 31.3063 68.7028 34.4126 71.7482 34.4126C74.7936 34.4126 77.8998 31.3063 77.8998 28.261C77.8998 25.2156 75.4635 22.7793 72.4182 22.7793C69.3728 22.7793 66.9365 25.2156 66.9365 28.261Z" fill="#2C3B58"/>
<path d="M72.6013 35.9353C71.9922 35.9353 71.3831 35.9962 70.835 36.1789C70.165 36.4226 61.2725 41.7215 61.2725 41.7215H55.5473C54.2073 41.7215 53.1719 42.8178 53.1719 44.0969C53.1719 45.4368 54.2682 46.4723 55.5473 46.4723H62.5516L67.1196 43.8532L66.7542 54.512C66.6933 55.3647 66.0233 56.0347 65.1706 56.0347L57.679 56.0956V63.8308H70.4695C73.8803 63.8308 76.743 61.1509 76.9257 57.7401L77.7784 41.5997C77.9611 38.5543 75.6467 35.9962 72.6013 35.9353Z" fill="#2C3B58"/>
<path d="M77.9009 69.8607H60.1769C58.776 69.8607 57.6797 68.7644 57.6797 67.3635V66.3281H77.9009V69.8607Z" fill="#EE851F"/>
<path d="M7.24796 22.7793C6.45617 22.7793 5.72528 22.962 5.0553 23.2666C4.68986 22.2311 3.71534 21.5002 2.61901 21.5002C1.15724 21.5002 0 22.6575 0 24.1193C0 25.3374 0.852702 26.3728 2.00994 26.6774C1.82722 27.1646 1.76631 27.7128 1.76631 28.261C1.76631 31.3063 4.87258 34.4126 7.91794 34.4126C10.9633 34.4126 12.7296 31.3063 12.7296 28.261C12.7296 25.2156 10.2324 22.7793 7.24796 22.7793Z" fill="#2C3B58"/>
<path d="M26.5559 44.1579C26.5559 42.8179 25.4595 41.7825 24.1805 41.7825H18.4552C18.4552 41.7825 9.56274 36.4836 8.89276 36.2399C8.34459 36.0572 7.73552 35.9354 7.12645 35.9963C4.14199 36.0572 1.76661 38.6153 1.94933 41.5998L2.80203 57.7402C2.98476 61.151 5.8474 63.8309 9.2582 63.8309H22.0487V56.1566L14.4353 56.0348C13.5826 56.0348 12.9126 55.3648 12.8517 54.5121L12.4863 43.8534L17.0543 46.4724H24.0587C25.4595 46.5333 26.5559 45.4978 26.5559 44.1579Z" fill="#2C3B58"/>
<path d="M1.70508 69.8607H19.4291C20.83 69.8607 21.9263 68.7644 21.9263 67.3635V66.3281H1.70508V69.8607Z" fill="#EE851F"/>
</svg>
