<svg width="78" height="78" viewBox="0 0 78 78" fill="none" xmlns="http://www.w3.org/2000/svg">
<path d="M59.7799 78C49.7252 78 41.5596 69.8343 41.5596 59.7796C41.5596 49.725 49.7252 41.5593 59.7799 41.5593C69.8346 41.5593 78.0002 49.725 78.0002 59.7796C78.0002 69.8343 69.8346 78 59.7799 78ZM59.7799 44.2406C51.1877 44.2406 44.2408 51.2484 44.2408 59.7796C44.2408 68.3109 51.2486 75.3187 59.7799 75.3187C68.3111 75.3187 75.3189 68.3109 75.3189 59.7796C75.3189 51.2484 68.3721 44.2406 59.7799 44.2406Z" fill="#EE851F"/>
<path d="M70.6873 53.8078L66.7873 50.639L57.7076 61.9125L52.0404 57.3422L48.9326 61.2422L58.4998 68.9203L70.6873 53.8078Z" fill="#EE851F"/>
<path d="M62.5828 8.16565H56.6719V11.8828C56.6719 14.8078 54.2953 17.2453 51.3094 17.2453C48.3844 17.2453 45.9469 14.8688 45.9469 11.8828V8.16565H19.7438V11.8828C19.7438 14.8078 17.3672 17.2453 14.3813 17.2453C11.4563 17.2453 9.01875 14.8688 9.01875 11.8828V8.16565H3.22969C1.4625 8.16565 0 9.62815 0 11.3953V21.6938H65.7516V11.3953C65.7516 9.62815 64.35 8.16565 62.5828 8.16565Z" fill="#2C3B58"/>
<path d="M15.9656 14.9297H12.8578C12.0047 14.9297 11.2734 14.2594 11.2734 13.3453V1.58437C11.2734 0.73125 11.9438 0 12.8578 0H15.9656C16.8188 0 17.55 0.670312 17.55 1.58437V13.4062C17.55 14.2594 16.8188 14.9297 15.9656 14.9297Z" fill="#EE851F"/>
<path d="M52.8943 14.9297H49.7865C48.9334 14.9297 48.2021 14.2594 48.2021 13.3453V1.58437C48.2021 0.73125 48.8725 0 49.7865 0H52.8943C53.7475 0 54.4787 0.670312 54.4787 1.58437V13.4062C54.4787 14.1984 53.7475 14.9297 52.8943 14.9297Z" fill="#EE851F"/>
<path d="M38.3297 62.6438H4.75313C3.83906 62.6438 3.10781 61.9125 3.10781 60.9984V26.8734H62.6438V39.3656C63.7406 39.4875 64.7766 39.6703 65.7516 39.9141V23.7656H0V60.9984C0 63.6187 2.13281 65.7516 4.75313 65.7516H39.6094C39.1219 64.7766 38.6953 63.7406 38.3297 62.6438Z" fill="#2C3B58"/>
<path d="M20.5361 31.9313H8.34863V39.2438H20.5361V31.9313Z" fill="#2C3B58"/>
<path d="M39 31.9313H26.8125V39.2438H39V31.9313Z" fill="#2C3B58"/>
<path d="M20.5361 46.4343H8.34863V53.7468H20.5361V46.4343Z" fill="#2C3B58"/>
<path d="M39 46.4343H26.8125V53.7468H39V46.4343Z" fill="#2C3B58"/>
<path d="M57.4033 31.9313H45.2158V39.2438H57.4033V31.9313Z" fill="#2C3B58"/>
</svg>
