<svg width="79" height="78" viewBox="0 0 79 78" fill="none" xmlns="http://www.w3.org/2000/svg">
<path d="M77.6422 56.4787H74.4096C74.1657 56.4787 73.9827 56.6617 73.9827 56.9057C73.7387 66.7254 65.3218 74.5934 55.2581 73.9225C46.6582 73.3126 39.7051 66.3595 39.0952 57.7596C38.4243 48.9767 44.2795 41.4747 52.2695 39.5229V43.0605C52.2695 43.3654 52.5745 43.4874 52.8184 43.3044L60.6254 37.5102L52.8184 31.7159C52.5745 31.533 52.2695 31.7159 52.2695 31.9599V35.1925C41.9008 37.2662 34.1548 46.781 34.8867 57.9425C35.6186 68.5552 44.2185 77.2161 54.8922 77.948C67.3345 78.8018 77.7642 69.0431 78.0082 56.8447C78.0692 56.6617 77.8862 56.4787 77.6422 56.4787Z" fill="#EE851F"/>
<path d="M61.174 51.1115H66.8463C67.0903 51.1115 67.2732 50.9285 67.2732 50.6845V23.3601C67.2732 23.1161 67.0903 22.9331 66.8463 22.9331H61.174C60.93 22.9331 60.7471 23.1161 60.7471 23.3601V50.6845C60.7471 50.9285 60.93 51.1115 61.174 51.1115Z" fill="#EE851F"/>
<path d="M9.39279 11.1616H0L11.1616 0V9.45378C11.1616 10.3687 10.3687 11.1616 9.39279 11.1616Z" fill="#EE851F"/>
<path d="M30.3131 54.344C30.3131 45.3171 35.9854 37.5711 43.9143 34.4605V0H13.6012V12.0764C13.6012 12.9913 12.8693 13.7232 11.9545 13.7232H0V61.1141H31.4109C30.679 58.9794 30.3131 56.7227 30.3131 54.344ZM6.34318 20.7983H37.4492V25.1288H6.34318V20.7983V20.7983ZM6.34318 29.4592H37.4492V33.7896H6.34318V29.4592V29.4592ZM22.2011 51.7213H6.34318V47.3909H22.2011V51.7213ZM29.6422 42.9994H6.34318V38.669H29.6422V42.9994Z" fill="#2C3B58"/>
</svg>
