<svg width="98" height="78" viewBox="0 0 98 78" fill="none" xmlns="http://www.w3.org/2000/svg">
<path d="M6.4434 66.9033H0.479449C0.0206834 66.9033 -0.208699 66.2916 0.250066 65.9857L5.22002 62.7744C10.2664 59.563 13.019 52.9109 14.3953 48.4762C9.04307 43.2004 6.06109 36.5483 6.06109 29.6668C6.06109 13.3042 22.5002 0 42.7623 0C63.0244 0 79.4635 13.3042 79.4635 29.6668C79.4635 46.0294 63.0244 59.3336 42.7623 59.3336C39.1686 59.3336 35.575 58.8749 32.1342 58.0338C24.4117 66.0622 11.7192 66.9033 6.4434 66.9033ZM42.7623 4.51119C24.9469 4.51119 10.4958 15.8274 10.4958 29.7433C10.4958 35.7837 13.3249 41.6712 18.3713 46.2588L19.3653 47.1764L18.983 48.4762C17.989 51.9934 16.001 57.6515 12.4073 62.0862C17.989 61.3981 25.1763 59.4101 29.611 54.1343L30.5286 53.0638L31.9049 53.4461C35.3456 54.4401 39.0157 54.8989 42.6858 54.8989C60.5012 54.8989 74.9523 43.5827 74.9523 29.6668C75.0288 15.8274 60.5777 4.51119 42.7623 4.51119Z" fill="#EE851F"/>
<path d="M28.1577 39.5303C30.2269 39.5303 31.9043 37.8529 31.9043 35.7837C31.9043 33.7145 30.2269 32.0371 28.1577 32.0371C26.0885 32.0371 24.4111 33.7145 24.4111 35.7837C24.4111 37.8529 26.0885 39.5303 28.1577 39.5303Z" fill="#2C3B58"/>
<path d="M42.3032 39.5302C44.3724 39.5302 46.0498 37.8528 46.0498 35.7836C46.0498 33.7144 44.3724 32.037 42.3032 32.037C40.234 32.037 38.5566 33.7144 38.5566 35.7836C38.5566 37.8528 40.234 39.5302 42.3032 39.5302Z" fill="#2C3B58"/>
<path d="M56.4478 39.5302C58.5169 39.5302 60.1943 37.8528 60.1943 35.7836C60.1943 33.7144 58.5169 32.037 56.4478 32.037C54.3786 32.037 52.7012 33.7144 52.7012 35.7836C52.7012 37.8528 54.3786 39.5302 56.4478 39.5302Z" fill="#2C3B58"/>
<path d="M39.3223 66.9031C39.3223 66.9031 60.4255 66.9796 73.3474 55.2811C86.2692 43.5826 85.2752 29.2844 85.2752 25.3849C91.0863 29.8961 111.195 46.1058 83.9754 66.215C81.2993 67.2854 85.734 74.6257 88.7924 77.4547C89.0218 77.6841 88.7924 78.0664 88.4866 77.99C79.6936 75.3138 72.8886 71.3379 71.6652 70.1145C66.5423 72.7906 44.5216 72.1025 39.3223 66.9031Z" fill="#2C3B58"/>
</svg>
