<svg width="58" height="78" viewBox="0 0 58 78" fill="none" xmlns="http://www.w3.org/2000/svg">
<path d="M37.8721 6.83033L37.6892 6.76934C31.7126 5.48865 25.3702 5.48865 19.4546 6.83033C16.6493 6.83033 16.7713 5.12274 16.7713 3.04925L22.5039 1.89053C26.5289 1.34167 30.6149 1.34167 34.5789 1.89053L40.5555 3.04925C40.5555 5.12274 40.6775 6.83033 37.8721 6.83033Z" fill="#F6811D"/>
<path d="M28.663 0C12.8679 0 0 14.3925 0 32.1392C0 35.3104 0.426896 38.4816 1.2197 41.4699C1.28069 41.7748 1.6466 41.9578 1.95152 41.8968C2.25645 41.8358 3.47615 41.4699 3.35418 41.165C2.56137 38.2377 2.13448 35.1884 2.13448 32.1392C2.13448 15.0633 13.4777 2.19546 28.602 2.19546C43.7873 2.19546 55.0696 15.0633 55.0696 32.1392C55.0696 35.3104 54.6427 38.4206 53.8499 41.3479C53.7889 41.6528 54.9476 41.9578 55.2525 42.0797C55.3135 42.0797 55.3745 42.0797 55.4355 42.0797C55.6794 42.0797 55.9234 41.8968 55.9843 41.6528C56.8381 38.6036 57.265 35.3714 57.265 32.0782C57.326 14.3925 44.4582 0 28.663 0Z" fill="#2C3B58"/>
<path d="M51.6538 39.8232C51.7148 39.5183 52.0197 39.2744 52.3247 39.3353C55.008 39.8842 56.8376 41.8357 56.4717 43.7873L54.5201 53.4839C54.3372 54.4596 53.6054 55.2525 52.5076 55.7403C51.8368 56.0453 51.105 56.1672 50.3122 56.1672C49.8853 56.1672 49.4584 56.1062 49.0315 56.0453C48.7265 55.9843 48.4826 55.6794 48.5436 55.3744L51.6538 39.8232Z" fill="#EE851F"/>
<path d="M35.493 72.4503C35.0051 71.8404 34.2733 71.4745 33.5414 71.4135L26.1013 70.6207C25.3085 70.5597 24.5766 70.7427 23.9668 71.2306C23.5399 71.5965 23.174 72.0843 22.991 72.6332C9.33036 70.7427 6.58603 58.7286 6.09815 56.1062C6.34209 56.1062 6.52504 56.1672 6.76898 56.1672C7.19588 56.1672 7.62277 56.1062 8.04967 56.0453C8.3546 55.9843 8.59854 55.6794 8.53755 55.3744L5.36632 39.8232C5.30534 39.5183 5.00041 39.2744 4.69549 39.3353C2.01214 39.8842 0.182589 41.8357 0.5485 43.7873L2.50002 53.4839C2.68298 54.4596 3.35381 55.1915 4.45155 55.6794C4.45155 55.7403 4.45155 55.7403 4.45155 55.8013C4.45155 55.9843 6.52504 71.8404 22.6861 74.0969C22.6251 74.8287 22.8691 75.5605 23.2959 76.1704C23.7838 76.7802 24.5157 77.1461 25.2475 77.2071L32.6877 77.9999C32.8096 77.9999 32.8706 77.9999 32.9926 77.9999C33.6634 77.9999 34.3343 77.756 34.8221 77.3291C35.432 76.8412 35.7979 76.1703 35.9199 75.3775L36.0418 74.4628C36.2248 73.7919 35.9809 73.0601 35.493 72.4503Z" fill="#EE851F"/>
<path d="M16.4051 58.4849L11.4043 34.7007C11.9532 34.7617 12.502 34.9446 12.9289 35.2495C13.7217 35.7984 14.2706 36.5912 14.4536 37.506L17.9297 54.8258C18.1127 55.7405 17.9297 56.7163 17.3808 57.5091C17.1979 57.875 16.832 58.2409 16.4051 58.4849Z" fill="#2C3B58"/>
<path d="M9.14807 35.1276L14.1489 58.9118C14.1489 58.9118 12.6852 59.2167 11.2825 59.4606C9.63595 59.7656 8.11132 58.7288 7.74541 57.1432L4.08631 39.1526C3.78138 37.506 4.81813 35.9204 6.46473 35.6154L9.14807 35.1276Z" fill="#2C3B58"/>
<path d="M40.9222 58.5459L45.923 34.7617C45.3742 34.8227 44.8253 35.0057 44.3984 35.3106C43.6056 35.8595 43.0567 36.6523 42.8738 37.567L39.2756 54.8868C39.0927 55.8016 39.2756 56.7773 39.8245 57.5702C40.1294 57.9361 40.4953 58.302 40.9222 58.5459Z" fill="#2C3B58"/>
<path d="M48.1795 35.1886L43.1787 58.9728C43.1787 58.9728 44.6424 59.2777 46.045 59.5217C47.6916 59.8266 49.2162 58.7898 49.5821 57.2042L53.2413 39.2136C53.5462 37.567 52.5094 35.9814 50.8628 35.6765L48.1795 35.1886Z" fill="#2C3B58"/>
</svg>
