<svg width="34" height="35" viewBox="0 0 34 35" fill="none" xmlns="http://www.w3.org/2000/svg">
<path d="M33.2379 29.0235L31.7498 24.5585C31.2297 22.9997 29.903 21.8491 28.2856 21.5547L23.9897 20.773V20.44C24.7373 20.0061 25.3878 19.4257 25.906 18.7385H27.2038C28.267 18.7385 29.1322 17.8733 29.1322 16.8101V9.09631C29.1322 4.48863 25.3833 0.739746 20.7757 0.739746C16.168 0.739746 12.4191 4.48863 12.4191 9.09631V13.596C12.4191 14.8353 13.3004 15.8722 14.469 16.1139C14.8297 17.9613 15.9841 19.5247 17.5616 20.44V20.773L13.265 21.5547C11.6484 21.8491 10.321 22.9997 9.80157 24.5585L9.54445 25.3305L7.35502 23.1411C7.10433 22.8904 7.10433 22.4822 7.35502 22.2315L9.89413 19.6931L5.12832 14.9273L2.25881 17.7968C1.40901 18.6466 0.94104 19.7766 0.94104 20.9787C0.94104 22.1808 1.40901 23.3102 2.25881 24.16L10.9464 32.8476C11.7962 33.6974 12.9263 34.166 14.1283 34.166C15.3304 34.166 16.4598 33.6974 17.2897 32.8669L20.4208 29.998L19.4444 29.0235H33.2379ZM27.8466 16.8101C27.8466 17.1649 27.558 17.4529 27.2038 17.4529H26.6632C26.8496 17.028 26.991 16.5799 27.0823 16.1139C27.3574 16.0567 27.6107 15.9474 27.8466 15.8098V16.8101ZM27.2038 14.7029V12.4891C27.5863 12.7121 27.8466 13.1222 27.8466 13.596C27.8466 14.0698 27.5863 14.4799 27.2038 14.7029ZM14.3475 14.7029C13.9651 14.4799 13.7047 14.0698 13.7047 13.596C13.7047 13.1222 13.9651 12.7121 14.3475 12.4891V14.7029ZM14.3475 10.3819V11.116C14.1187 11.1758 13.904 11.2658 13.7047 11.3822V9.09631C13.7047 5.19765 16.877 2.02537 20.7757 2.02537C24.6743 2.02537 27.8466 5.19765 27.8466 9.09631V11.3822C27.6473 11.2658 27.4326 11.1752 27.2038 11.116V10.3819H26.561C24.6602 10.3819 22.8732 9.64142 21.5284 8.2973L20.7757 7.54456L20.0229 8.2973C18.6782 9.64142 16.8912 10.3819 14.9904 10.3819H14.3475ZM15.6332 14.8816V11.6431C17.5635 11.4979 19.3634 10.7014 20.7757 9.35858C22.1879 10.7014 23.9878 11.4985 25.9182 11.6431V14.8816C25.9182 15.8188 25.6623 16.6956 25.2226 17.4529H20.7757V18.7385H24.1659C23.2595 19.5362 22.0748 20.0241 20.7757 20.0241C17.9402 20.0241 15.6332 17.7171 15.6332 14.8816ZM22.7041 21.0134V21.0436L20.7757 22.9721L18.8472 21.0436V21.0134C19.4566 21.205 20.1039 21.3098 20.7757 21.3098C21.4474 21.3098 22.0947 21.205 22.7041 21.0134ZM11.0203 24.9648C11.3912 23.8514 12.3394 23.0293 13.4945 22.8184L17.9878 22.0021L20.7757 24.7899L23.5629 22.0027L28.0555 22.8191C29.2107 23.0299 30.1588 23.8514 30.5297 24.9654L31.4547 27.7379H18.1588L15.655 25.2341L12.8729 27.7507C12.6306 27.9944 12.207 27.9944 11.964 27.7507L10.5601 26.3468L11.0203 24.9648ZM5.12768 16.7451L8.07562 19.6931L7.37752 20.3912L4.42958 17.4432L5.12768 16.7451ZM16.3994 31.9399C15.7926 32.5455 14.9852 32.8804 14.1271 32.8804C13.2689 32.8804 12.4615 32.5455 11.8541 31.9387L3.16646 23.2517C2.55964 22.6449 2.22538 21.8375 2.22538 20.9793C2.22538 20.1206 2.55964 19.3132 3.16646 18.7064L3.52 18.3528L6.46794 21.3008L6.4448 21.3239C5.69335 22.076 5.69335 23.2993 6.4448 24.0513L11.0544 28.661C11.4189 29.0248 11.9029 29.226 12.4185 29.226C12.934 29.226 13.418 29.0254 13.7587 28.6835L13.8069 28.6404L16.7684 31.6018L16.3994 31.9399ZM17.7172 30.7315L14.7622 27.7765L15.6113 27.0089L18.5612 29.9588L17.7172 30.7315Z" fill="#EE851F"/>
</svg>
