<svg width="32" height="32" viewBox="0 0 32 32" fill="none" xmlns="http://www.w3.org/2000/svg">
<path d="M31.9998 30.3716C31.9995 29.2815 31.3279 28.3012 30.2886 27.8744L22.3169 24.6007V22.6823C23.1609 21.6595 23.6946 20.4414 23.8733 19.1336H25.5029C27.0537 19.1336 28.3154 17.9157 28.3154 16.4188V12.527C28.3154 11.1583 27.2603 10.0237 25.894 9.83915C25.6914 3.95135 22.281 0.844727 16 0.844727C9.71899 0.844727 6.30859 3.95135 6.10596 9.83915C4.73975 10.0237 3.68457 11.1583 3.68457 12.527V16.4188C3.68457 17.9157 4.94629 19.1336 6.49707 19.1336H8.12671C8.30542 20.4417 8.83911 21.6598 9.68311 22.6823V24.6007L1.71167 27.8744C0.672119 28.3012 0.000488281 29.2815 0 30.3719V30.8269C0 31.0671 0.0986328 31.2973 0.274658 31.467C0.450439 31.6366 0.688965 31.7321 0.9375 31.7321H31.0625C31.3113 31.7321 31.5498 31.6366 31.7256 31.467C31.9014 31.297 32 31.0668 32 30.8269L31.9998 30.3716ZM20.4429 25.2356C20.4436 25.2572 20.4961 27.4535 19.1521 28.8045C18.4141 29.5461 17.3535 29.922 16 29.922C14.6514 29.922 13.5935 29.5487 12.856 28.8126C11.4958 27.4545 11.5566 25.2547 11.5571 25.2356C11.5579 25.2233 11.5581 25.2113 11.5581 25.199V24.3031C12.8418 25.0871 14.373 25.5082 16 25.5082C17.627 25.5082 19.1582 25.0871 20.4419 24.3031V25.199C20.4419 25.2113 20.4421 25.2233 20.4429 25.2356ZM22.0654 17.7444L20.282 18.8922C19.7156 19.2568 19.0562 19.4496 18.375 19.4496H16.7893C16.2717 19.4496 15.8518 19.8547 15.8518 20.3545C15.8518 20.8543 16.2717 21.2594 16.7893 21.2594H18.375C19.4275 21.2594 20.4468 20.9615 21.3223 20.3978L21.6812 20.1669C20.8352 22.2739 18.6716 23.6984 16 23.6984C12.5422 23.6984 9.93457 21.3124 9.93457 18.1483V10.8122C10.3042 9.15363 10.8396 8.09955 11.4851 7.76163C12.1279 7.42464 13.062 7.77506 13.9653 8.11369C14.6692 8.37739 15.334 8.62671 16 8.62671C16.6721 8.62671 17.3289 8.3748 18.0244 8.10827C18.9287 7.76139 19.783 7.43383 20.4158 7.75244C20.877 7.98456 21.5344 8.7073 22.0654 10.8237V17.7444ZM26.4404 12.527V16.4188C26.4404 16.9177 26.0198 17.3237 25.5029 17.3237H23.9404V11.6221H25.5029C26.0198 11.6221 26.4404 12.0281 26.4404 12.527ZM9.65234 4.87134C10.9507 3.40039 13.0862 2.65455 16 2.65455C18.9138 2.65455 21.0493 3.40039 22.3477 4.87134C23.3699 6.02957 23.9299 7.69022 24.0166 9.81228H23.729C23.1628 7.87144 22.3772 6.69859 21.2827 6.14764C19.8884 5.44586 18.4709 5.98928 17.332 6.42618C16.8311 6.61824 16.313 6.81689 15.9998 6.81689C15.6851 6.81689 15.1558 6.61847 14.644 6.42665C13.4648 5.98433 11.9971 5.43408 10.5906 6.17073C9.53003 6.7264 8.76221 7.9214 8.25366 9.81228H7.9834C8.06982 7.69022 8.63013 6.02957 9.65234 4.87134ZM5.55957 16.4188V12.527C5.55957 12.0281 5.98022 11.6221 6.49707 11.6221H8.05957V17.3237H6.49707C5.98022 17.3237 5.55957 16.9177 5.55957 16.4188ZM2.44556 29.5398L9.79053 26.5234C9.95508 27.5054 10.3638 28.8415 11.3657 29.9222H1.99902C2.09839 29.7547 2.25317 29.6187 2.44556 29.5398ZM20.6343 29.9222C21.6362 28.8415 22.0449 27.5054 22.2095 26.5234L29.5544 29.5398C29.7468 29.6187 29.9014 29.7547 30.001 29.9222H20.6343Z" fill="#EE851F"/>
</svg>
